<svg width="870" height="649" viewBox="0 0 870 649" fill="none" xmlns="http://www.w3.org/2000/svg">
<g clip-path="url(#clip0_2_196)">
<path d="M870 569.763H0V570.198H870V569.763Z" fill="#EBEBEB"/>
<path d="M712.826 597.986H684.011V598.421H712.826V597.986Z" fill="#EBEBEB"/>
<path d="M638.58 591.652H572.791V592.087H638.58V591.652Z" fill="#EBEBEB"/>
<path d="M581.299 581.612H461.1V582.047H581.299V581.612Z" fill="#EBEBEB"/>
<path d="M113.361 584.536H91.2803V584.971H113.361V584.536Z" fill="#EBEBEB"/>
<path d="M192.949 584.536H128.865V584.971H192.949V584.536Z" fill="#EBEBEB"/>
<path d="M368.636 591.878H265.054V592.313H368.636V591.878Z" fill="#EBEBEB"/>
<path d="M412.397 492.159H76.4034C70.9224 492.159 66.468 487.705 66.468 482.224V9.9354C66.468 4.4544 70.9224 0 76.4034 0H412.397C417.878 0 422.333 4.4544 422.333 9.9354V482.224C422.333 487.705 417.878 492.159 412.397 492.159ZM76.4034 0.435C71.166 0.435 66.903 4.698 66.903 9.9354V482.224C66.903 487.461 71.166 491.724 76.4034 491.724H412.397C417.635 491.724 421.898 487.461 421.898 482.224V9.9354C421.898 4.698 417.635 0.435 412.397 0.435H76.4034Z" fill="#EBEBEB"/>
<path d="M788.759 492.159H452.765C447.284 492.159 442.83 487.705 442.83 482.224V9.9354C442.83 4.4544 447.284 0 452.765 0H788.759C794.24 0 798.695 4.4544 798.695 9.9354V482.224C798.695 487.705 794.24 492.159 788.759 492.159ZM452.765 0.435C447.528 0.435 443.265 4.698 443.265 9.9354V482.224C443.265 487.461 447.528 491.724 452.765 491.724H788.759C793.997 491.724 798.26 487.461 798.26 482.224V9.9354C798.26 4.698 793.997 0.435 788.759 0.435H452.765Z" fill="#EBEBEB"/>
<path d="M202.31 328.181C202.31 328.181 201.109 356.265 155.33 356.265C109.55 356.265 108.35 328.181 108.35 328.181H202.31Z" fill="#F0F0F0"/>
<path d="M202.31 306.745C202.31 306.745 201.109 334.828 155.33 334.828C109.55 334.828 108.35 306.745 108.35 306.745H202.31Z" fill="#F0F0F0"/>
<path d="M128.36 363.712H92.2549V554.347H128.36V363.712Z" fill="#F0F0F0"/>
<path d="M411.284 554.347H105.427V569.763H411.284V554.347Z" fill="#F0F0F0"/>
<path d="M128.36 554.347H424.456V363.712H128.36V554.347Z" fill="#F5F5F5"/>
<path d="M155.33 447.302L397.486 447.302V383.896H155.33V447.302Z" fill="#F0F0F0"/>
<path d="M155.33 525.254H397.486V461.848H155.33V525.254Z" fill="#F0F0F0"/>
<path d="M304.813 392.648H248.002C244.992 392.648 242.539 390.195 242.539 387.185C242.539 384.175 244.992 381.721 248.002 381.721H304.813C307.824 381.721 310.277 384.175 310.277 387.185C310.277 390.195 307.824 392.648 304.813 392.648Z" fill="#F5F5F5"/>
<path d="M304.813 470.6H248.002C244.992 470.6 242.539 468.147 242.539 465.137C242.539 462.127 244.992 459.673 248.002 459.673H304.813C307.824 459.673 310.277 462.127 310.277 465.137C310.277 468.147 307.824 470.6 304.813 470.6Z" fill="#F5F5F5"/>
<path d="M433.608 356.265H128.36V363.712H433.608V356.265Z" fill="#F0F0F0"/>
<path d="M82.6675 363.712H128.36V356.265H82.6675V363.712Z" fill="#E6E6E6"/>
<path d="M754.812 66.8856H491.811V304.256H754.812V66.8856Z" fill="#E6E6E6"/>
<path d="M768.367 66.8856H496.335V304.256H768.367V66.8856Z" fill="#F5F5F5"/>
<path d="M739.674 377.858H719.698V569.763H739.674V377.858Z" fill="#E6E6E6"/>
<path d="M745.016 377.858H733.253V569.763H745.016V377.858Z" fill="#F0F0F0"/>
<path d="M654.658 377.858H634.682V569.763H654.658V377.858Z" fill="#E6E6E6"/>
<path d="M658.398 377.858H646.636V569.763H658.398V377.858Z" fill="#F0F0F0"/>
<path d="M572.982 414.99H748.67V377.841H572.982V414.99Z" fill="#F0F0F0"/>
<path d="M486.243 377.858H466.268V569.763H486.243V377.858Z" fill="#E6E6E6"/>
<path d="M490.001 377.858H478.239V569.763H490.001V377.858Z" fill="#F0F0F0"/>
<path d="M462.718 414.99H564.438V377.841H462.718V414.99Z" fill="#E6E6E6"/>
<path d="M571.276 377.858H551.301V569.763H571.276V377.858Z" fill="#E6E6E6"/>
<path d="M576.618 377.858H564.856V569.763H576.618V377.858Z" fill="#F0F0F0"/>
<path d="M435 648.341C621.324 648.341 772.369 639.523 772.369 628.645C772.369 617.766 621.324 608.948 435 608.948C248.677 608.948 97.6316 617.766 97.6316 628.645C97.6316 639.523 248.677 648.341 435 648.341Z" fill="#F5F5F5"/>
<path d="M148.735 413.372L127.316 40.89C126.881 33.4428 132.57 27.4224 140.018 27.4224H564.804C572.251 27.4224 578.619 33.4602 579.054 40.89L600.456 413.354C600.891 420.802 595.202 426.822 587.754 426.822H162.968C155.521 426.822 149.153 420.784 148.718 413.354L148.735 413.372Z" fill="#263238"/>
<path d="M587.772 427.657H162.968C155.103 427.657 148.352 421.271 147.9 413.407L126.498 40.9422C126.272 37.1142 127.559 33.5124 130.134 30.798C132.692 28.0836 136.207 26.6046 140.018 26.6046H564.804C572.669 26.6046 579.42 32.9904 579.872 40.8552L601.274 413.32C601.5 417.148 600.213 420.749 597.638 423.464C595.08 426.178 591.565 427.657 587.737 427.657H587.772ZM149.553 413.32C149.953 420.314 155.973 426.004 162.968 426.004H587.754C591.113 426.004 594.21 424.699 596.437 422.333C598.682 419.949 599.813 416.782 599.621 413.407L578.219 40.9422C577.819 33.9474 571.799 28.2576 564.804 28.2576H140.018C136.659 28.2576 133.562 29.5626 131.335 31.929C129.09 34.3128 127.959 37.4796 128.151 40.8552L149.553 413.32Z" fill="#263238"/>
<path d="M153.938 413.372L132.518 40.89C132.083 33.4428 137.773 27.4224 145.22 27.4224H570.006C577.454 27.4224 583.822 33.4602 584.257 40.89L605.659 413.354C606.094 420.802 600.404 426.822 592.957 426.822H168.171C160.724 426.822 154.355 420.784 153.92 413.354L153.938 413.372Z" fill="white"/>
<path d="M592.974 427.657H168.171C160.306 427.657 153.555 421.271 153.102 413.407L131.7 40.9422C131.474 37.1142 132.762 33.5124 135.337 30.798C137.895 28.0836 141.41 26.6046 145.22 26.6046H570.006C577.871 26.6046 584.622 32.9904 585.075 40.8552L606.477 413.32C606.703 417.148 605.415 420.749 602.84 423.464C600.282 426.178 596.768 427.657 592.94 427.657H592.974ZM145.22 28.2576C141.862 28.2576 138.765 29.5626 136.538 31.929C134.293 34.3128 133.162 37.4796 133.353 40.8552L154.755 413.32C155.156 420.314 161.176 426.004 168.171 426.004H592.957C596.315 426.004 599.412 424.699 601.64 422.333C603.884 419.949 605.015 416.782 604.824 413.407L583.422 40.9422C583.022 33.9474 577.001 28.2576 570.006 28.2576H145.22Z" fill="#263238"/>
<path d="M296.722 81.2058H178.019C173.617 81.2058 169.824 77.604 169.563 73.2192C169.302 68.817 172.695 65.2326 177.097 65.2326H295.817C300.22 65.2326 304.013 68.8344 304.274 73.2192C304.535 77.6214 301.142 81.2058 296.74 81.2058H296.722Z" fill="#407BFF"/>
<path d="M274.902 108.907H179.603C175.2 108.907 171.407 105.305 171.146 100.92C170.885 96.5178 174.278 92.9334 178.68 92.9334H273.98C278.382 92.9334 282.176 96.5352 282.437 100.92C282.698 105.322 279.305 108.907 274.902 108.907Z" fill="#407BFF"/>
<path d="M321.534 144.646H178.837C175.983 144.646 173.547 142.332 173.373 139.478C173.217 136.625 175.392 134.311 178.245 134.311H320.943C323.796 134.311 326.232 136.625 326.406 139.478C326.563 142.332 324.388 144.646 321.534 144.646Z" fill="#E0E0E0"/>
<path d="M347.269 161.107H195.489C192.635 161.107 190.199 158.792 190.025 155.939C189.869 153.085 192.044 150.771 194.897 150.771H346.677C349.531 150.771 351.967 153.085 352.141 155.939C352.298 158.792 350.123 161.107 347.269 161.107Z" fill="#E0E0E0"/>
<path d="M320.421 177.567H196.429C193.575 177.567 191.139 175.253 190.965 172.399C190.808 169.546 192.983 167.231 195.837 167.231H319.829C322.683 167.231 325.119 169.546 325.293 172.399C325.45 175.253 323.275 177.567 320.421 177.567Z" fill="#E0E0E0"/>
<path d="M307.371 194.027H197.386C194.532 194.027 192.096 191.713 191.922 188.86C191.765 186.006 193.94 183.692 196.794 183.692H306.779C309.633 183.692 312.069 186.006 312.243 188.86C312.4 191.713 310.225 194.027 307.371 194.027Z" fill="#E0E0E0"/>
<path d="M272.31 220.806H183.204C180.351 220.806 177.915 218.492 177.741 215.638C177.584 212.785 179.759 210.47 182.613 210.47H271.718C274.572 210.47 277.008 212.785 277.182 215.638C277.338 218.492 275.163 220.806 272.31 220.806Z" fill="#E0E0E0"/>
<path d="M297.575 259.869H201.161C198.308 259.869 196.133 262.183 196.289 265.037C196.446 267.89 198.899 270.205 201.753 270.205H298.166C301.02 270.205 303.195 267.89 303.038 265.037C302.882 262.183 300.428 259.869 297.575 259.869Z" fill="#E0E0E0"/>
<path d="M278.33 243.409H200.204C197.351 243.409 195.176 245.723 195.332 248.576C195.489 251.43 197.942 253.744 200.796 253.744H278.922C281.776 253.744 283.951 251.43 283.794 248.576C283.637 245.723 281.184 243.409 278.33 243.409Z" fill="#E0E0E0"/>
<path d="M286.352 226.948H199.265C196.411 226.948 194.236 229.262 194.393 232.116C194.549 234.97 197.003 237.284 199.856 237.284H286.943C289.797 237.284 291.972 234.97 291.815 232.116C291.659 229.262 289.205 226.948 286.352 226.948Z" fill="#E0E0E0"/>
<path d="M279.531 346.364H190.426C187.572 346.364 185.136 344.05 184.962 341.197C184.805 338.343 186.98 336.029 189.834 336.029H278.939C281.793 336.029 284.229 338.343 284.403 341.197C284.56 344.05 282.385 346.364 279.531 346.364Z" fill="#E0E0E0"/>
<path d="M304.796 385.427H208.382C205.529 385.427 203.354 387.742 203.51 390.595C203.667 393.449 206.12 395.763 208.974 395.763H305.387C308.241 395.763 310.416 393.449 310.259 390.595C310.103 387.742 307.649 385.427 304.796 385.427Z" fill="#E0E0E0"/>
<path d="M285.551 368.967H207.425C204.572 368.967 202.397 371.281 202.553 374.135C202.71 376.988 205.163 379.303 208.017 379.303H286.143C288.996 379.303 291.171 376.988 291.015 374.135C290.858 371.281 288.405 368.967 285.551 368.967Z" fill="#E0E0E0"/>
<path d="M293.573 352.507H206.486C203.632 352.507 201.457 354.821 201.614 357.674C201.771 360.528 204.224 362.842 207.078 362.842H294.164C297.018 362.842 299.193 360.528 299.037 357.674C298.88 354.821 296.427 352.507 293.573 352.507Z" fill="#E0E0E0"/>
<path d="M300.411 309.25H203.997C201.144 309.25 198.969 311.564 199.125 314.418C199.282 317.272 201.735 319.586 204.589 319.586H301.002C303.856 319.586 306.031 317.272 305.874 314.418C305.718 311.564 303.264 309.25 300.411 309.25Z" fill="#E0E0E0"/>
<path d="M281.166 292.79H203.04C200.187 292.79 198.012 295.104 198.168 297.958C198.325 300.811 200.778 303.125 203.632 303.125H281.758C284.612 303.125 286.787 300.811 286.63 297.958C286.473 295.104 284.02 292.79 281.166 292.79Z" fill="#E0E0E0"/>
<path d="M289.188 276.329H202.101C199.248 276.329 197.073 278.644 197.229 281.497C197.386 284.351 199.839 286.665 202.693 286.665H289.78C292.633 286.665 294.808 284.351 294.652 281.497C294.495 278.644 292.042 276.329 289.188 276.329Z" fill="#E0E0E0"/>
<path d="M452.504 141.201H409.474C385.706 141.201 365.33 121.939 363.973 98.1708C362.598 74.4024 380.764 55.1406 404.532 55.1406C428.301 55.1406 448.676 74.4024 450.033 98.1708L452.504 141.201Z" fill="#407BFF"/>
<path d="M409.039 133.736C389.394 133.736 372.551 117.798 371.42 98.1534C370.289 78.5088 385.305 62.5704 404.95 62.5704C424.595 62.5704 441.438 78.5088 442.569 98.1534C443.7 117.798 428.684 133.736 409.039 133.736Z" fill="white"/>
<path d="M411.232 83.7462L412.885 112.561H404.915L403.837 93.6816C402.601 94.656 401.401 95.4564 400.235 96.0654C399.069 96.6744 397.59 97.2486 395.798 97.8054L395.432 91.35C398.06 90.48 400.078 89.4534 401.488 88.2354C402.897 87.0174 403.976 85.5384 404.707 83.7462H411.214H411.232Z" fill="#263238"/>
<path d="M479.074 227.261H522.104C545.873 227.261 564.038 208 562.664 184.231C561.289 160.463 540.931 141.201 517.163 141.201C493.394 141.201 475.229 160.463 476.603 184.231L479.074 227.261Z" fill="#407BFF"/>
<path d="M521.669 219.814C541.314 219.814 556.33 203.876 555.199 184.231C554.068 164.587 537.225 148.648 517.58 148.648C497.936 148.648 482.92 164.587 484.051 184.231C485.182 203.876 502.025 219.814 521.669 219.814Z" fill="white"/>
<path d="M533.032 198.638H509.42C509.559 196.307 510.255 194.114 511.508 192.061C512.761 190.008 515.197 187.589 518.816 184.788C521.026 183.083 522.418 181.778 523.009 180.89C523.601 180.003 523.879 179.15 523.827 178.367C523.775 177.497 523.409 176.767 522.748 176.158C522.087 175.549 521.252 175.235 520.295 175.235C519.338 175.235 518.485 175.549 517.894 176.175C517.285 176.801 516.919 177.915 516.797 179.516L508.88 178.872C509.054 176.662 509.524 174.922 510.29 173.687C511.055 172.451 512.152 171.494 513.613 170.833C515.075 170.172 517.128 169.841 519.79 169.841C522.452 169.841 524.732 170.155 526.315 170.781C527.899 171.407 529.151 172.382 530.108 173.687C531.065 174.992 531.587 176.453 531.692 178.089C531.796 179.812 531.379 181.465 530.456 183.031C529.534 184.597 527.794 186.337 525.236 188.216C523.723 189.312 522.696 190.078 522.191 190.513C521.687 190.948 521.095 191.522 520.399 192.235H532.684L533.049 198.656L533.032 198.638Z" fill="#263238"/>
<g opacity="0.4">
<path d="M462.405 313.339H419.375C395.606 313.339 375.231 294.077 373.874 270.309C372.499 246.541 390.665 227.279 414.433 227.279C438.201 227.279 458.577 246.541 459.934 270.309L462.405 313.339Z" fill="#407BFF"/>
</g>
<path d="M418.94 305.875C399.295 305.875 382.452 289.936 381.321 270.292C380.19 250.647 395.206 234.709 414.851 234.709C434.495 234.709 451.339 250.647 452.47 270.292C453.601 289.936 438.584 305.875 418.94 305.875Z" fill="white"/>
<path d="M412.71 264.323L405.194 262.984C405.681 260.617 406.76 258.79 408.447 257.537C410.135 256.267 412.589 255.641 415.808 255.641C419.496 255.641 422.211 256.337 423.951 257.711C425.673 259.086 426.596 260.826 426.717 262.914C426.787 264.132 426.509 265.246 425.9 266.237C425.291 267.229 424.334 268.099 423.011 268.847C424.125 269.126 424.977 269.439 425.586 269.787C426.561 270.361 427.344 271.127 427.918 272.084C428.492 273.023 428.823 274.154 428.892 275.477C428.979 277.13 428.649 278.713 427.866 280.227C427.083 281.741 425.917 282.907 424.334 283.724C422.75 284.542 420.645 284.96 418 284.96C415.355 284.96 413.372 284.664 411.858 284.055C410.344 283.446 409.056 282.559 408.03 281.393C407.003 280.227 406.185 278.765 405.559 276.991L413.372 275.947C413.772 277.53 414.311 278.626 415.007 279.235C415.686 279.844 416.538 280.157 417.548 280.157C418.609 280.157 419.462 279.775 420.123 278.992C420.784 278.226 421.08 277.182 420.993 275.894C420.923 274.572 420.523 273.563 419.81 272.849C419.096 272.136 418.157 271.771 416.991 271.771C416.364 271.771 415.529 271.927 414.468 272.24L414.555 266.62C414.99 266.69 415.338 266.725 415.581 266.725C416.608 266.725 417.461 266.394 418.104 265.733C418.748 265.072 419.061 264.289 419.009 263.401C418.957 262.531 418.661 261.853 418.122 261.331C417.582 260.809 416.852 260.565 415.947 260.565C415.042 260.565 414.276 260.843 413.737 261.4C413.198 261.957 412.85 262.949 412.728 264.341L412.71 264.323Z" fill="#263238"/>
<path d="M488.957 399.4H531.987C555.756 399.4 573.921 380.138 572.547 356.369C571.172 332.601 550.814 313.339 527.046 313.339C503.277 313.339 485.112 332.601 486.486 356.369L488.957 399.4Z" fill="#E0E0E0"/>
<path d="M531.57 391.952C551.214 391.952 566.231 376.014 565.1 356.369C563.969 336.725 547.125 320.786 527.481 320.786C507.836 320.786 492.82 336.725 493.951 356.369C495.082 376.014 511.925 391.952 531.57 391.952Z" fill="white"/>
<path d="M531.413 365.487H517.076L516.71 359.014L530.074 341.962H536.929L537.938 359.38H541.488L541.836 365.487H538.286L538.582 370.777H531.727L531.431 365.487H531.413ZM531.065 359.38L530.561 350.471L523.496 359.38H531.065Z" fill="#E0E0E0"/>
<path d="M473.21 314.853C472.41 314.853 471.731 314.227 471.697 313.409L461.796 141.271C461.744 140.435 462.388 139.705 463.223 139.67C464.058 139.6 464.789 140.261 464.841 141.114L474.742 313.252C474.794 314.087 474.15 314.818 473.315 314.853C473.28 314.853 473.263 314.853 473.228 314.853H473.21Z" fill="#407BFF"/>
<path d="M478.152 400.931C477.352 400.931 476.673 400.304 476.638 399.487L471.697 313.409C471.645 312.574 472.288 311.843 473.124 311.808C473.941 311.756 474.69 312.4 474.742 313.252L479.683 399.33C479.736 400.165 479.092 400.896 478.257 400.931C478.222 400.931 478.204 400.931 478.17 400.931H478.152Z" fill="#E0E0E0"/>
<path d="M466.529 141.201C466.633 142.976 465.276 144.42 463.501 144.42C461.726 144.42 460.195 142.976 460.091 141.201C459.986 139.426 461.344 137.982 463.118 137.982C464.893 137.982 466.424 139.426 466.529 141.201Z" fill="white"/>
<path d="M463.501 145.934C460.926 145.934 458.716 143.846 458.577 141.271C458.507 139.983 458.942 138.782 459.812 137.86C460.682 136.938 461.866 136.433 463.136 136.433C465.711 136.433 467.921 138.521 468.06 141.097C468.13 142.384 467.695 143.585 466.825 144.507C465.955 145.429 464.771 145.934 463.501 145.934ZM463.136 139.496C462.701 139.496 462.301 139.652 462.022 139.966C461.744 140.261 461.605 140.679 461.622 141.114C461.674 142.071 462.544 142.889 463.501 142.889C463.936 142.889 464.336 142.732 464.615 142.419C464.893 142.123 465.032 141.706 465.015 141.271C464.963 140.314 464.093 139.496 463.136 139.496Z" fill="#407BFF"/>
<path d="M471.488 227.261C471.592 229.036 470.235 230.48 468.46 230.48C466.685 230.48 465.154 229.036 465.05 227.261C464.945 225.487 466.302 224.042 468.077 224.042C469.852 224.042 471.383 225.487 471.488 227.261Z" fill="white"/>
<path d="M468.443 232.012C465.867 232.012 463.658 229.924 463.518 227.348C463.449 226.061 463.884 224.86 464.754 223.938C465.624 223.016 466.807 222.511 468.077 222.511C470.652 222.511 472.862 224.599 473.001 227.174C473.071 228.462 472.636 229.68 471.766 230.585C470.896 231.507 469.713 232.012 468.443 232.012ZM468.077 225.574C467.642 225.574 467.242 225.73 466.964 226.043C466.685 226.339 466.529 226.757 466.563 227.192C466.616 228.149 467.486 228.967 468.443 228.967C468.878 228.967 469.278 228.81 469.556 228.497C469.835 228.201 469.974 227.783 469.956 227.348C469.904 226.391 469.034 225.574 468.077 225.574Z" fill="#407BFF"/>
<path d="M476.429 313.339C476.534 315.114 475.176 316.558 473.402 316.558C471.627 316.558 470.096 315.114 469.991 313.339C469.887 311.564 471.244 310.12 473.019 310.12C474.794 310.12 476.325 311.564 476.429 313.339Z" fill="white"/>
<path d="M473.384 318.089C470.809 318.089 468.599 316.001 468.46 313.426C468.391 312.139 468.825 310.938 469.678 310.016C470.548 309.094 471.731 308.589 473.001 308.589C475.577 308.589 477.787 310.677 477.926 313.235C477.995 314.522 477.56 315.74 476.69 316.645C475.82 317.567 474.637 318.072 473.367 318.072L473.384 318.089ZM473.019 311.651C472.584 311.651 472.184 311.808 471.905 312.121C471.627 312.417 471.488 312.835 471.505 313.27C471.557 314.244 472.427 315.062 473.384 315.062C473.819 315.062 474.22 314.905 474.498 314.592C474.776 314.296 474.915 313.879 474.898 313.444C474.846 312.469 473.976 311.669 473.019 311.669V311.651Z" fill="#E0E0E0"/>
<path d="M481.371 399.4C481.476 401.174 480.118 402.619 478.344 402.619C476.569 402.619 475.038 401.174 474.933 399.4C474.829 397.625 476.186 396.181 477.961 396.181C479.736 396.181 481.267 397.625 481.371 399.4Z" fill="white"/>
<path d="M478.344 404.15C475.768 404.15 473.559 402.062 473.419 399.487C473.35 398.199 473.785 396.981 474.655 396.076C475.525 395.154 476.708 394.649 477.978 394.649C480.553 394.649 482.763 396.737 482.902 399.313C482.972 400.6 482.537 401.801 481.667 402.723C480.797 403.645 479.614 404.15 478.344 404.15ZM477.978 397.712C477.543 397.712 477.143 397.868 476.865 398.182C476.586 398.477 476.43 398.895 476.464 399.33C476.517 400.287 477.387 401.105 478.344 401.105C478.779 401.105 479.179 400.948 479.457 400.635C479.736 400.339 479.892 399.922 479.857 399.487C479.805 398.53 478.935 397.712 477.978 397.712Z" fill="#E0E0E0"/>
<path d="M736.977 173.234C738.143 175.044 739.083 176.593 740.022 178.298C740.962 179.968 741.867 181.639 742.737 183.344C744.494 186.719 746.095 190.182 747.591 193.679C750.549 200.709 753.02 207.982 754.812 215.516L755.421 218.37L755.717 219.797L755.787 220.162L755.908 220.876C755.995 221.363 756.013 221.815 756.048 222.268C756.169 225.869 755.247 228.41 754.325 230.602C752.411 234.952 749.992 238.171 747.487 241.234C742.423 247.289 736.89 252.265 730.783 256.876L725.215 251.03C729.478 245.462 733.776 239.633 737.256 233.891C738.961 231.037 740.492 228.062 741.205 225.608C741.571 224.425 741.588 223.364 741.484 223.294C741.466 223.294 741.484 223.294 741.449 223.346C741.449 223.346 741.449 223.381 741.449 223.399L741.362 223.085L740.997 221.867L740.283 219.414C738.213 212.906 735.655 206.486 732.749 200.204C731.305 197.055 729.739 193.958 728.155 190.861C727.355 189.312 726.537 187.798 725.702 186.284C724.867 184.805 723.979 183.222 723.214 181.952L736.942 173.2L736.977 173.234Z" fill="#FF8B7B"/>
<path d="M729.199 247.95L716.115 248.489L721.387 259.73C721.387 259.73 730.696 259.208 734.193 253.553L729.199 247.95Z" fill="#FF8B7B"/>
<path d="M712.878 253.535L716.114 263.593L721.387 259.712L716.114 248.489L712.878 253.535Z" fill="#FF8B7B"/>
<path d="M704.822 613.35C706.301 613.35 707.902 613.054 709.033 612.776C709.172 612.741 709.294 612.619 709.329 612.48C709.363 612.323 709.294 612.184 709.172 612.097C708.633 611.732 703.83 608.617 701.968 609.452C701.672 609.592 701.307 609.87 701.203 610.514C701.063 611.349 701.272 612.028 701.794 612.515C702.473 613.141 703.587 613.35 704.822 613.35ZM707.971 612.236C705.187 612.793 703.099 612.689 702.316 611.958C701.986 611.645 701.864 611.21 701.951 610.618C702.003 610.305 702.142 610.201 702.264 610.148C703.256 609.696 706.023 611.053 707.971 612.254V612.236Z" fill="#407BFF"/>
<path d="M708.946 612.793C708.946 612.793 709.085 612.793 709.137 612.741C709.259 612.671 709.328 612.55 709.328 612.41C709.328 612.219 709.381 607.625 707.658 606.094C707.206 605.694 706.666 605.52 706.075 605.59C705.135 605.711 704.857 606.303 704.787 606.634C704.404 608.426 707.258 611.871 708.754 612.724C708.806 612.758 708.876 612.776 708.946 612.776V612.793ZM706.318 606.338C706.631 606.338 706.892 606.442 707.153 606.668C708.18 607.591 708.493 610.166 708.563 611.68C707.066 610.479 705.292 607.886 705.535 606.79C705.57 606.616 705.674 606.39 706.162 606.338C706.214 606.338 706.283 606.338 706.336 606.338H706.318Z" fill="#407BFF"/>
<path d="M584.275 606.251C584.414 606.251 584.536 606.199 584.623 606.094C584.71 605.972 584.71 605.798 584.623 605.659C584.136 605.033 579.855 599.656 577.541 599.5C577.489 599.5 577.437 599.5 577.384 599.5C576.949 599.5 576.584 599.726 576.358 600.109C575.975 600.735 575.905 601.379 576.184 602.023C577.106 604.128 581.613 605.572 584.223 606.251C584.24 606.251 584.275 606.251 584.292 606.251H584.275ZM577.506 600.248C578.776 600.335 581.456 603.032 583.283 605.224C579.768 604.198 577.402 602.927 576.88 601.744C576.706 601.327 576.741 600.926 577.002 600.491C577.106 600.317 577.228 600.248 577.419 600.248C577.454 600.248 577.471 600.248 577.506 600.248Z" fill="#407BFF"/>
<path d="M584.275 606.251C584.275 606.251 584.327 606.251 584.362 606.251C584.501 606.233 584.605 606.146 584.657 606.025C584.727 605.851 586.241 601.936 585.11 599.604C584.762 598.891 584.205 598.386 583.457 598.125C582.448 597.76 581.926 598.09 581.682 598.438C580.621 599.9 582.604 604.528 583.996 606.112C584.066 606.199 584.17 606.233 584.275 606.251ZM582.761 598.717C582.883 598.717 583.022 598.751 583.213 598.821C583.77 599.012 584.17 599.378 584.414 599.9C585.162 601.431 584.536 603.919 584.153 605.085C582.865 603.223 581.682 599.743 582.326 598.873C582.361 598.821 582.465 598.699 582.761 598.717Z" fill="#407BFF"/>
<path d="M698.941 118.981C697.148 128.464 693.094 149.135 699.741 155.312C699.741 155.312 697.218 164.935 679.644 165.283C660.313 165.665 670.352 155.887 670.352 155.887C680.879 153.172 680.566 145.36 678.687 138.052L698.941 118.981Z" fill="#FF8B7B"/>
<path d="M702.369 146.491C701.359 143.881 698.488 142.558 695.826 143.428C689.754 145.394 682.411 146.508 677.226 146.786C674.946 146.908 672.893 148.213 671.762 150.197L664.297 163.351L706.858 158.201L702.369 146.491Z" fill="#407BFF"/>
<path d="M660.017 103.286C660.121 103.269 660.243 103.217 660.33 103.13C660.661 102.869 660.713 102.399 660.452 102.068C657.877 98.8146 654.414 99.1452 654.257 99.1626C653.84 99.1974 653.544 99.5802 653.579 99.9978C653.614 100.415 653.979 100.711 654.397 100.676C654.518 100.676 657.215 100.45 659.269 103.043C659.46 103.269 659.738 103.356 660.017 103.304V103.286Z" fill="#263238"/>
<path d="M656.05 112.595C656.05 112.595 654.327 118.32 652.152 121.208C653.962 122.635 656.781 121.643 656.781 121.643L656.05 112.613V112.595Z" fill="#FF5652"/>
<path d="M657.024 110.299C657.128 111.586 656.537 112.682 655.702 112.769C654.866 112.856 654.101 111.882 653.996 110.594C653.892 109.307 654.484 108.211 655.319 108.124C656.154 108.037 656.92 109.011 657.024 110.299Z" fill="#263238"/>
<path d="M655.684 108.158L652.535 107.567C652.535 107.567 654.31 109.829 655.684 108.158Z" fill="#263238"/>
<path d="M599.482 616.308L584.048 610.984L594.941 576.671L610.357 581.978L599.482 616.308Z" fill="#FF8B7B"/>
<path d="M726.763 612.898H710.825L709.38 576.027H725.319L726.763 612.898Z" fill="#FF8B7B"/>
<path d="M710.321 610.583H728.208C728.852 610.583 729.374 611.036 729.461 611.68L731.305 625.843C731.496 627.305 730.209 628.697 728.712 628.679C722.483 628.575 719.473 628.21 711.608 628.21C706.771 628.21 699.689 628.714 693.008 628.714C686.326 628.714 686.065 622.102 688.849 621.511C701.36 618.831 703.395 615.125 707.641 611.593C708.407 610.949 709.364 610.618 710.321 610.618V610.583Z" fill="#263238"/>
<path d="M586.067 604.72L602.614 612.497C603.223 612.776 603.502 613.402 603.31 614.011L599.047 627.305C598.612 628.679 596.837 629.358 595.463 628.679C589.738 625.878 587.111 624.242 579.838 620.815C575.366 618.709 565.883 614.794 559.688 611.888C553.633 609.052 556.052 603.032 558.888 603.71C571.607 606.79 577.75 605.677 583.178 604.406C584.153 604.18 585.179 604.285 586.067 604.702V604.72Z" fill="#263238"/>
<path opacity="0.2" d="M594.941 576.671L589.094 595.063L604.754 599.691L610.375 581.995L594.941 576.671Z" fill="black"/>
<path opacity="0.2" d="M725.319 576.027H709.381L710.129 595.045H726.067L725.319 576.027Z" fill="black"/>
<path d="M730.887 157.331C737.517 158.653 744.72 182.282 744.72 182.282L726.12 202.519C726.12 202.519 710.46 180.49 713.574 172.208C716.828 163.595 723.057 155.747 730.887 157.313V157.331Z" fill="#407BFF"/>
<path opacity="0.4" d="M730.887 157.331C737.517 158.653 744.72 182.282 744.72 182.282L726.12 202.519C726.12 202.519 710.46 180.49 713.574 172.208C716.828 163.595 723.057 155.747 730.887 157.313V157.331Z" fill="white"/>
<path opacity="0.4" d="M720.482 172.678C717.124 169.685 714.862 170.642 713.33 173.095C711.851 180.194 720.952 194.81 724.623 200.344C726.259 193.627 728.103 179.481 720.482 172.66V172.678Z" fill="#407BFF"/>
<path d="M645.801 162.812C644.601 169.772 644.34 191 655.232 255.31L719.96 254.04C718.725 227.766 718.603 211.549 730.887 157.313C730.887 157.313 717.315 154.634 703.378 154.234C692.485 153.92 683.559 153.746 673.989 154.808C664.593 155.852 654.24 157.888 649.594 158.862C647.645 159.262 646.149 160.828 645.819 162.794L645.801 162.812Z" fill="#407BFF"/>
<path opacity="0.4" d="M645.801 162.812C644.601 169.772 644.34 191 655.232 255.31L719.96 254.04C718.725 227.766 718.603 211.549 730.887 157.313C730.887 157.313 717.315 154.634 703.378 154.234C692.485 153.92 683.559 153.746 673.989 154.808C664.593 155.852 654.24 157.888 649.594 158.862C647.645 159.262 646.149 160.828 645.819 162.794L645.801 162.812Z" fill="white"/>
<path d="M699.636 101.825C699.932 117.659 700.402 124.34 693.129 133.18C682.184 146.456 662.748 143.637 657.737 128.273C653.231 114.457 653.492 90.8802 668.351 83.172C682.985 75.5682 699.341 86.0082 699.636 101.825Z" fill="#FF8B7B"/>
<path d="M655.684 97.7185C668.247 95.2129 684.759 90.9499 688.065 81.7627C691.354 72.5755 654.118 65.4067 655.684 97.7185Z" fill="#263238"/>
<path d="M665.358 101.877C663.584 100.99 660.33 95.4738 662.366 85.869C664.401 76.2642 679.574 67.6686 691.458 74.4372C678.896 79.2744 665.358 101.894 665.358 101.894V101.877Z" fill="#407BFF"/>
<path d="M664.297 91.9242C662.174 100.816 664.367 107.167 667.76 110.438C667.76 110.438 658.99 167.753 702.629 161.524C746.268 155.278 720.777 90.1146 710.616 80.649C700.437 71.1834 673.102 66.381 664.315 91.9242H664.297Z" fill="#263238"/>
<path d="M664.558 105.757C662.401 109.15 662.001 112.839 662.175 115.31C662.488 119.555 665.811 119.555 668.247 117.015C670.44 114.736 672.823 109.237 671.588 106.001C670.37 102.817 666.472 102.712 664.541 105.757H664.558Z" fill="#FF8B7B"/>
<path d="M672.336 254.98C672.336 254.98 682.219 364.008 692.155 425.36C700.193 474.916 706.997 590.869 706.997 590.869H728.712C728.712 590.869 735.794 477.7 731.583 428.614C720.917 304.396 740.126 292.79 719.977 254.04L672.336 254.98Z" fill="#407BFF"/>
<path opacity="0.4" d="M694.417 291.433C688.762 299.75 681.193 309.337 678.757 319.464C680.706 337.856 683.002 358.196 685.473 377.754C691.424 361.294 701.673 328.425 694.417 291.433Z" fill="black"/>
<path d="M655.232 255.31C655.232 255.31 629.288 372.621 620.397 420.436C611.157 470.165 589.703 582.83 589.703 582.83L611.349 593.966C611.349 593.966 651.386 458.299 656.745 433.225C670.857 380.921 716.114 254.179 716.114 254.179L655.232 255.31Z" fill="#407BFF"/>
<path d="M585.214 587.494L611.541 597.968L616.656 588.799L588.486 577.558L585.214 587.494Z" fill="#263238"/>
<path d="M704.022 591.304H731.67L733.271 581.612L704.004 580.621L704.022 591.304Z" fill="#263238"/>
<path d="M720.917 250.229L723.874 255.954C724.101 256.406 723.579 256.859 722.831 256.876L654.936 258.216C654.344 258.216 653.874 257.955 653.822 257.59L653.213 251.813C653.178 251.413 653.683 251.065 654.309 251.047L719.855 249.76C720.342 249.76 720.76 249.934 720.917 250.229Z" fill="#263238"/>
<path d="M712.147 257.729L713.905 257.694C714.253 257.694 714.514 257.503 714.496 257.276L713.626 249.777C713.609 249.551 713.296 249.377 712.948 249.394L711.19 249.429C710.842 249.429 710.581 249.62 710.599 249.847L711.469 257.346C711.486 257.572 711.799 257.746 712.147 257.729Z" fill="#407BFF"/>
<path d="M669.604 258.564L671.361 258.529C671.709 258.529 671.97 258.338 671.953 258.112L671.083 250.612C671.066 250.386 670.753 250.212 670.405 250.229L668.647 250.264C668.299 250.264 668.038 250.456 668.056 250.682L668.926 258.181C668.943 258.407 669.256 258.581 669.604 258.564Z" fill="#407BFF"/>
<path d="M656.606 177.828C652.97 185.484 649.003 192.566 644.531 199.613C642.304 203.128 640.007 206.608 637.449 209.983C636.214 211.688 634.856 213.341 633.551 215.012C632.142 216.647 630.767 218.283 629.236 219.884C627.862 221.415 625.895 223.294 624.086 224.704C622.224 226.148 620.327 227.435 618.413 228.566C614.603 230.881 610.67 232.673 606.755 234.274C598.838 237.406 590.921 239.581 582.604 240.973L580.516 233.177C587.633 230.185 594.836 226.792 601.448 223.085C604.772 221.241 607.939 219.205 610.81 217.082C612.254 216.021 613.576 214.89 614.777 213.742C616.03 212.558 616.917 211.584 618.117 210.053C622.711 204.38 626.852 197.821 630.82 191.191C632.821 187.868 634.647 184.44 636.544 181.03C638.423 177.654 640.25 174.087 641.956 170.781L656.641 177.828H656.606Z" fill="#FF8B7B"/>
<path d="M650.534 158.653C635.24 161.959 630.089 184.336 630.089 184.336L649.612 201.161C649.612 201.161 669.483 180.734 668.787 168.467C668.282 159.349 658.869 156.861 650.534 158.653Z" fill="#407BFF"/>
<path opacity="0.4" d="M650.534 158.653C635.24 161.959 630.089 184.336 630.089 184.336L649.612 201.161C649.612 201.161 669.483 180.734 668.787 168.467C668.282 159.349 658.869 156.861 650.534 158.653Z" fill="white"/>
<path d="M588.416 239.755L572.947 247.602L567.205 234.378C567.205 234.378 580.899 231.211 586.78 234.152L588.416 239.755Z" fill="#FF8B7B"/>
<path d="M567.048 250.316L561.045 241.355L567.205 234.378L572.947 247.602L567.048 250.316Z" fill="#FF8B7B"/>
</g>
<defs>
<clipPath id="clip0_2_196">
<rect width="870" height="648.341" fill="white"/>
</clipPath>
</defs>
</svg>
