<svg width="19" height="20" viewBox="0 0 19 20" fill="none" xmlns="http://www.w3.org/2000/svg">
<path d="M9.35995 0.761353C9.4589 0.761353 9.55784 0.761353 9.65678 0.761353C9.79032 0.823478 9.92534 0.882255 10.0574 0.9481C12.5935 2.21553 15.1291 3.4837 17.6648 4.75188C17.9743 4.90663 18.2838 5.06101 18.5925 5.21726C18.7774 5.31063 18.9217 5.44939 18.9678 5.65325C19.0701 6.10636 18.9314 6.3835 18.5107 6.59443C17.5942 7.05423 16.6765 7.5118 15.76 7.97086C15.7023 7.99987 15.6473 8.0341 15.5699 8.07762C15.6525 8.12226 15.7098 8.15537 15.7689 8.18476C16.6858 8.64345 17.6031 9.10213 18.5203 9.56044C18.79 9.69511 18.9704 9.87367 18.9827 10.2115C18.9965 10.5861 18.8421 10.8149 18.5185 10.9741C17.5986 11.4272 16.6836 11.8896 15.7667 12.3486C15.7053 12.3791 15.6462 12.4137 15.5629 12.4588C15.6592 12.5086 15.7191 12.5402 15.7793 12.5704C16.6962 13.029 17.6139 13.487 18.5304 13.9464C18.7934 14.0781 18.9693 14.2555 18.9823 14.5851C18.9972 14.9486 18.8592 15.1848 18.5415 15.3437C15.6681 16.7785 12.7951 18.2152 9.92385 19.6545C9.64116 19.7962 9.37595 19.7977 9.09251 19.6545C8.08449 19.1434 7.07162 18.6408 6.06062 18.1348C4.2153 17.2119 2.36961 16.2901 0.526148 15.3634C0.396332 15.2983 0.261681 15.2153 0.170177 15.1067C-0.142274 14.7366 -0.00948221 14.2009 0.445803 13.9706C1.38316 13.497 2.32386 13.0302 3.2627 12.5599C3.31961 12.5313 3.37503 12.4993 3.45463 12.4558C3.36387 12.4078 3.30547 12.3754 3.24596 12.3457C2.33427 11.8896 1.42147 11.4365 0.512757 10.9748C0.383685 10.9093 0.250522 10.8234 0.16125 10.7129C-0.138926 10.3417 -0.00427468 9.81676 0.4432 9.59058C1.38055 9.11701 2.32125 8.65014 3.26009 8.17992C3.31775 8.15128 3.37243 8.11705 3.45017 8.07353C3.3661 8.02852 3.30845 7.99578 3.24931 7.96602C2.32646 7.50473 1.40399 7.0427 0.480396 6.58327C0.278791 6.48283 0.11959 6.34593 0.0459406 6.12644C-0.0808996 5.74923 0.0816493 5.38838 0.472585 5.19271C2.03 4.41261 3.5878 3.63288 5.1467 2.85538C6.54976 2.15564 7.95541 1.45924 9.35995 0.761353ZM2.41648 5.88241C2.4905 5.92258 2.52732 5.94416 2.56526 5.9635C4.83574 7.09924 7.10696 8.23387 9.37595 9.37295C9.4868 9.42875 9.56863 9.40829 9.66831 9.35844C11.9161 8.23201 14.1654 7.10817 16.4139 5.98322C16.4664 5.95681 16.5162 5.92519 16.5869 5.88464C16.5303 5.85153 16.4957 5.82921 16.4589 5.81061C14.1884 4.6745 11.9172 3.5395 9.64823 2.40042C9.53999 2.3461 9.45741 2.35764 9.35549 2.40897C7.45586 3.36131 5.55475 4.31068 3.65438 5.26115C3.25265 5.46204 2.8513 5.66441 2.41648 5.88278V5.88241ZM2.42131 10.2632C2.48343 10.2989 2.51802 10.3212 2.55448 10.3398C4.83016 11.4778 7.1051 12.6165 9.38376 13.7485C9.45592 13.7842 9.57904 13.7779 9.65344 13.7411C11.9206 12.6131 14.1843 11.4793 16.4485 10.3458C16.4898 10.3253 16.5281 10.2993 16.5839 10.2661C16.54 10.2379 16.5166 10.2196 16.4905 10.2066C15.6622 9.7922 14.8345 9.37518 14.0017 8.97007C13.931 8.93547 13.809 8.95258 13.7332 8.99016C12.4707 9.61401 11.2097 10.2401 9.95436 10.8773C9.64488 11.0343 9.36591 11.0325 9.05717 10.8755C7.80737 10.2408 6.54976 9.62071 5.29846 8.98904C5.17386 8.92617 5.08049 8.92766 4.95663 8.9909C4.23055 9.36142 3.49927 9.7219 2.77022 10.0861C2.66235 10.14 2.55522 10.1958 2.42168 10.2643L2.42131 10.2632ZM2.41722 14.6421C2.48492 14.6811 2.51988 14.7031 2.55634 14.7213C4.83202 15.8593 7.10696 16.998 9.38562 18.13C9.45741 18.1657 9.58053 18.1579 9.65492 18.1207C11.9165 16.9958 14.1747 15.8641 16.4336 14.7336C16.4801 14.7105 16.5233 14.6811 16.5846 14.645C16.5333 14.6145 16.5036 14.5944 16.4719 14.5785C15.6547 14.1692 14.8357 13.763 14.0211 13.349C13.9095 13.2924 13.828 13.3166 13.7291 13.3661C12.4707 13.9974 11.2083 14.6212 9.95287 15.2581C9.64302 15.4155 9.36405 15.4114 9.05569 15.2544C7.8003 14.6164 6.53934 13.9899 5.27801 13.3642C5.20994 13.3304 5.10281 13.308 5.04181 13.3378C4.17662 13.7604 3.31589 14.1931 2.41759 14.6417L2.41722 14.6421Z" fill="white"/>
</svg>
