<svg width="21" height="21" viewBox="0 0 21 21" fill="none" xmlns="http://www.w3.org/2000/svg">
<g clip-path="url(#clip0_2_14)">
<path d="M15.9489 19.0335C15.3616 19.0317 14.8707 18.8112 14.457 18.4045C14.2671 18.2177 14.0415 18.1407 13.7774 18.2224C13.525 18.3006 13.3742 18.4751 13.314 18.7271C13.2959 18.8036 13.3006 18.8864 13.2988 18.9658C13.2737 19.8954 12.6578 20.6755 11.7614 20.9113C11.6913 20.93 11.6194 20.9486 11.5475 20.9527C10.8346 20.9941 10.1164 21.0402 9.41052 20.9381C8.40952 20.7934 7.71647 19.959 7.70245 18.9471C7.69777 18.6262 7.59668 18.3747 7.29048 18.2434C6.98311 18.1121 6.733 18.2154 6.49868 18.436C5.63383 19.25 4.4248 19.2348 3.57397 18.405C3.23505 18.0748 2.89963 17.7404 2.56888 17.4014C1.74143 16.5523 1.73325 15.3409 2.55018 14.4814C2.76464 14.2562 2.87099 14.0105 2.74477 13.71C2.6168 13.4048 2.37079 13.2945 2.04647 13.2892C0.889443 13.2712 0.0134934 12.3813 0.00297501 11.2236C-0.00111548 10.7433 -0.000531128 10.2625 0.00297501 9.78224C0.0117403 8.6111 0.886521 7.72706 2.05757 7.70255C2.4561 7.69438 2.70153 7.51582 2.781 7.17037C2.84295 6.90078 2.72666 6.69538 2.54609 6.50398C1.86649 5.7845 1.75838 4.78316 2.26385 3.97264C2.35325 3.82968 2.45961 3.7013 2.57882 3.58284C2.90898 3.25374 3.2368 2.92229 3.57047 2.59668C4.43824 1.74882 5.64902 1.74006 6.52614 2.57626C6.74761 2.78691 6.99655 2.87152 7.28405 2.75132C7.56805 2.63228 7.69485 2.40237 7.70245 2.09485C7.73225 0.864772 8.60645 0.0122377 9.84353 0.0169059C10.4185 0.01924 10.9976 -0.0396963 11.568 0.0484164C12.5754 0.204218 13.2743 1.02758 13.2994 2.04933C13.3012 2.12928 13.3 2.21097 13.3181 2.28741C13.4437 2.81726 14.0532 2.97656 14.4681 2.58501C15.1185 1.97056 15.8641 1.81067 16.7056 2.10885C16.9773 2.20514 17.2082 2.37144 17.4115 2.57393C17.7528 2.91237 18.0958 3.24907 18.4318 3.59335C19.2575 4.43888 19.2663 5.65495 18.4493 6.5139C18.2343 6.74031 18.1291 6.98481 18.2548 7.28475C18.3827 7.58993 18.6293 7.70022 18.9531 7.70547C20.1107 7.72414 20.9843 8.61169 20.996 9.77174C21.0006 10.245 20.9989 10.7182 20.996 11.1909C20.989 12.3912 20.1229 13.2665 18.9192 13.2927C18.5428 13.3009 18.2957 13.4859 18.2179 13.8243C18.156 14.0939 18.2717 14.2993 18.4528 14.4907C19.1319 15.2056 19.24 16.211 18.7351 17.0221C18.6498 17.1586 18.5498 17.2835 18.4365 17.3973C18.0917 17.7427 17.7481 18.0893 17.3993 18.4307C16.996 18.8258 16.511 19.0294 15.9477 19.0329L15.9489 19.0335ZM15.9033 17.6342C16.1382 17.6377 16.3018 17.5543 16.4415 17.4142C16.7606 17.0944 17.0825 16.7782 17.4004 16.4572C17.7335 16.1211 17.7335 15.7681 17.4115 15.4209C16.7991 14.7597 16.6226 13.9977 16.975 13.1644C17.3268 12.3328 17.9935 11.9226 18.8952 11.8964C19.3341 11.8835 19.5953 11.6227 19.5976 11.1804C19.5999 10.7217 19.6005 10.2637 19.5976 9.805C19.5947 9.37611 19.3311 9.11119 18.9063 9.1001C17.9953 9.07618 17.3221 8.66479 16.9703 7.82218C16.6215 6.98773 16.8015 6.22681 17.4174 5.56859C17.7306 5.23364 17.7306 4.87478 17.408 4.548C17.1112 4.24748 16.8108 3.95047 16.5116 3.65228C16.1195 3.26074 15.7975 3.25315 15.3972 3.62778C15.0087 3.9919 14.547 4.1868 14.017 4.2008C12.8652 4.23173 11.9209 3.31559 11.8993 2.15729C11.8899 1.6572 11.641 1.41387 11.1379 1.4127C10.6932 1.41212 10.2485 1.41037 9.80438 1.4127C9.37488 1.41504 9.10666 1.67763 9.10081 2.1036C9.09848 2.28683 9.07978 2.46714 9.03361 2.64336C8.63274 4.18329 6.75696 4.71372 5.59117 3.61786C5.21076 3.26074 4.8765 3.26365 4.50836 3.63011C4.2191 3.91779 3.93102 4.20605 3.64293 4.4949C3.25141 4.88703 3.2444 5.20797 3.62072 5.60827C3.9912 6.00215 4.18463 6.47131 4.19339 7.00874C4.21151 8.15945 3.29699 9.07734 2.12127 9.09952C1.66255 9.10827 1.40309 9.36561 1.40075 9.81901C1.399 10.2847 1.39666 10.7503 1.40134 11.2166C1.40543 11.6157 1.67482 11.887 2.07393 11.894C2.26443 11.897 2.45201 11.9127 2.63608 11.9611C4.1782 12.3632 4.70646 14.2316 3.60962 15.3993C3.25258 15.7797 3.2555 16.1141 3.62189 16.4811C3.90998 16.77 4.19865 17.0577 4.48791 17.3453C4.88001 17.7357 5.20433 17.7421 5.60286 17.3658C5.98386 17.0057 6.43732 16.8085 6.95973 16.7916C8.13955 16.7542 9.07744 17.6645 9.09848 18.8555C9.10666 19.3264 9.36319 19.5814 9.83301 19.5826C10.2847 19.5838 10.737 19.5849 11.1887 19.5826C11.6282 19.5803 11.8917 19.3171 11.897 18.8742C11.8999 18.5941 11.9507 18.3251 12.0588 18.0672C12.6157 16.7344 14.3238 16.3697 15.385 17.3605C15.5439 17.5087 15.7035 17.6383 15.9015 17.6342H15.9033Z" fill="white"/>
<path d="M5.60108 10.5058C5.59699 7.81052 7.79534 5.60537 10.4857 5.60596C13.2018 5.60654 15.3931 7.7901 15.399 10.5006C15.4048 13.1696 13.203 15.387 10.5459 15.3882C7.80001 15.3894 5.60517 13.2222 5.60108 10.5058ZM10.5032 7.00409C8.55266 7.00934 6.99535 8.57611 7.0012 10.5274C7.00704 12.4379 8.58772 13.9948 10.5184 13.9918C12.4328 13.9889 14.0082 12.4041 13.9989 10.4895C13.9895 8.56328 12.4205 6.99884 10.5032 7.00409Z" fill="white"/>
</g>
<defs>
<clipPath id="clip0_2_14">
<rect width="21" height="21" fill="white"/>
</clipPath>
</defs>
</svg>
