<svg width="42" height="42" viewBox="0 0 42 42" fill="none" xmlns="http://www.w3.org/2000/svg">
<g clip-path="url(#clip0_2_191)">
<path d="M31.8976 38.067C30.7231 38.0635 29.7414 37.6223 28.9139 36.8089C28.5341 36.4354 28.083 36.2814 27.5547 36.4448C27.0498 36.6011 26.7483 36.9501 26.6279 37.4543C26.5917 37.6071 26.601 37.7729 26.5975 37.9316C26.5473 39.7907 25.3155 41.3511 23.5227 41.8225C23.3824 41.8599 23.2387 41.8972 23.0949 41.9054C21.6691 41.9883 20.2327 42.0805 18.8209 41.8762C16.8189 41.5868 15.4328 39.9179 15.4048 37.8942C15.3954 37.2524 15.1932 36.7494 14.5808 36.4868C13.9661 36.2242 13.4659 36.4307 12.9972 36.8719C11.2675 38.4999 8.84947 38.4696 7.14783 36.81C6.46997 36.1495 5.79913 35.4808 5.13764 34.8027C3.48275 33.1046 3.46638 30.6818 5.10024 28.9628C5.52916 28.5123 5.74187 28.0209 5.48942 27.4199C5.23348 26.8095 4.74145 26.589 4.09281 26.5785C1.77876 26.5423 0.0268648 24.7625 0.00582794 22.4471C-0.00235304 21.4866 -0.00118433 20.5249 0.00582794 19.5645C0.0233586 17.2222 1.77292 15.4541 4.11502 15.4051C4.91208 15.3887 5.40294 15.0316 5.56188 14.3407C5.68577 13.8015 5.45319 13.3907 5.09206 13.0079C3.73285 11.569 3.51664 9.56629 4.52757 7.94525C4.70639 7.65932 4.91909 7.40257 5.15751 7.16566C5.81783 6.50744 6.47348 5.84455 7.14081 5.19333C8.87635 3.4976 11.2979 3.4801 13.0522 5.15249C13.4951 5.5738 13.993 5.74302 14.568 5.5026C15.136 5.26453 15.3896 4.80471 15.4048 4.18967C15.4644 1.72951 17.2128 0.0244448 19.6869 0.0337812C20.837 0.0384495 21.9951 -0.0794232 23.1358 0.0968023C25.1507 0.408406 26.5484 2.05512 26.5987 4.09864C26.6022 4.25852 26.5999 4.42191 26.6361 4.5748C26.8874 5.63448 28.1063 5.95309 28.9361 5.16999C30.2369 3.94108 31.7282 3.62131 33.4111 4.21768C33.9546 4.41024 34.4162 4.74285 34.8229 5.14782C35.5055 5.82471 36.1915 6.4981 36.8635 7.18667C38.5149 8.87773 38.5324 11.3099 36.8986 13.0278C36.4685 13.4806 36.2581 13.9696 36.5094 14.5695C36.7653 15.1798 37.2585 15.4004 37.906 15.4109C40.2212 15.4483 41.9684 17.2233 41.9918 19.5435C42.0012 20.4899 41.9976 21.4364 41.9918 22.3817C41.9778 24.7824 40.2458 26.5329 37.8382 26.5855C37.0856 26.6018 36.5912 26.9718 36.4357 27.6487C36.3119 28.1878 36.5433 28.5986 36.9056 28.9814C38.2636 30.4111 38.4798 32.4219 37.4701 34.0441C37.2994 34.3172 37.0996 34.567 36.8728 34.7945C36.1833 35.4854 35.4961 36.1787 34.7984 36.8614C33.992 37.6515 33.0219 38.0588 31.8953 38.0658L31.8976 38.067ZM31.8065 35.2684C32.2763 35.2754 32.6035 35.1085 32.8829 34.8284C33.521 34.1888 34.1649 33.5563 34.8007 32.9144C35.4669 32.2422 35.4669 31.5361 34.8229 30.8417C33.5981 29.5194 33.2452 27.9953 33.9499 26.3287C34.6535 24.6657 35.987 23.8452 37.7903 23.7927C38.668 23.767 39.1904 23.2454 39.1951 22.3607C39.1998 21.4434 39.2009 20.5273 39.1951 19.61C39.1892 18.7522 38.6621 18.2223 37.8125 18.2002C35.9905 18.1523 34.6441 17.3295 33.9405 15.6443C33.2428 13.9754 33.6028 12.4536 34.8346 11.1371C35.461 10.4673 35.461 9.74952 34.8159 9.09597C34.2222 8.49494 33.6215 7.9009 33.0231 7.30454C32.2389 6.52144 31.5949 6.50627 30.7944 7.25552C30.0172 7.98376 29.0939 8.37356 28.0339 8.40157C25.7303 8.46342 23.8417 6.63115 23.7985 4.31454C23.7798 3.31438 23.2819 2.82771 22.2756 2.82538C21.3862 2.82421 20.4969 2.82071 19.6086 2.82538C18.7496 2.83005 18.2132 3.35522 18.2015 4.20717C18.1968 4.57363 18.1594 4.93425 18.0671 5.2867C17.2654 8.36656 13.5138 9.42741 11.1822 7.23568C10.4214 6.52144 9.75289 6.52728 9.0166 7.26019C8.43809 7.83555 7.86191 8.41207 7.28573 8.98977C6.5027 9.77403 6.48867 10.4159 7.24132 11.2165C7.98229 12.0043 8.36913 12.9426 8.38666 14.0174C8.42289 16.3189 6.59386 18.1547 4.24241 18.199C3.32497 18.2165 2.80606 18.7312 2.80139 19.638C2.79788 20.5693 2.79321 21.5006 2.80256 22.4331C2.81074 23.2313 3.34951 23.774 4.14774 23.788C4.52874 23.7939 4.9039 23.8254 5.27204 23.9222C8.35628 24.7263 9.41279 28.4633 7.21912 30.7985C6.50504 31.5595 6.51088 32.2282 7.24366 32.9623C7.81984 33.54 8.39718 34.1153 8.97569 34.6907C9.7599 35.4714 10.4085 35.4843 11.2056 34.7315C11.9676 34.0114 12.8745 33.617 13.9193 33.5831C16.279 33.5084 18.1548 35.329 18.1968 37.711C18.2132 38.6528 18.7263 39.1628 19.6659 39.1652C20.5693 39.1675 21.4739 39.1698 22.3773 39.1652C23.2562 39.1605 23.7833 38.6342 23.7938 37.7484C23.7996 37.1882 23.9013 36.6502 24.1175 36.1343C25.2313 33.4688 28.6475 32.7394 30.7698 34.721C31.0877 35.0174 31.4068 35.2765 31.803 35.2684H31.8065Z" fill="#14192D"/>
<path d="M11.2022 21.0117C11.194 15.621 15.5907 11.2107 20.9714 11.2119C26.4036 11.2131 30.7863 15.5802 30.798 21.0012C30.8096 26.3393 26.4059 30.7741 21.0918 30.7764C15.6 30.7788 11.2103 26.4443 11.2022 21.0117ZM21.0065 14.0082C17.1053 14.0187 13.9907 17.1522 14.0024 21.0549C14.0141 24.8758 17.1754 27.9895 21.0369 27.9837C24.8656 27.9778 28.0164 24.8081 27.9977 20.979C27.979 17.1266 24.841 13.9977 21.0065 14.0082Z" fill="#14192D"/>
</g>
<defs>
<clipPath id="clip0_2_191">
<rect width="42" height="42" fill="white"/>
</clipPath>
</defs>
</svg>
